<?xml version="1.0" encoding="UTF-8" standalone="no"?> <svg width="512" height="512" viewBox="0 0 512 512" fill="none" xmlns="http://www.w3.org/2000/svg">
<path fill-rule="evenodd" clip-rule="evenodd" d="M200 64V240H309C317.837 240 325 247.163 325 256C325 264.837 317.837 272 309 272H200V448H448V64H200ZM168 56V240H86.6898L135.698 195.893C142.266 189.981 142.798 179.865 136.887 173.297C130.976 166.729 120.859 166.196 114.291 172.107L40.898 238.161C30.3048 247.695 30.3048 264.305 40.898 273.839L114.291 339.893C120.859 345.804 130.976 345.272 136.887 338.704C142.798 332.135 142.266 322.019 135.698 316.107L86.6895 272H168V456C168 469.255 178.745 480 192 480H456C469.255 480 480 469.255 480 456V56C480 42.7452 469.255 32 456 32H192C178.745 32 168 42.7452 168 56Z" fill="black"/>
</svg>
